<?xml version="1.0" encoding="utf-8" standalone="no"?>
<!DOCTYPE svg PUBLIC "-//W3C//DTD SVG 1.1//EN"
  "http://www.w3.org/Graphics/SVG/1.1/DTD/svg11.dtd">
<svg xmlns:xlink="http://www.w3.org/1999/xlink" width="264.2795pt" height="189.834919pt" viewBox="0 0 264.2795 189.834919" xmlns="http://www.w3.org/2000/svg" version="1.1">
 <metadata>
  <rdf:RDF xmlns:dc="http://purl.org/dc/elements/1.1/" xmlns:cc="http://creativecommons.org/ns#" xmlns:rdf="http://www.w3.org/1999/02/22-rdf-syntax-ns#">
   <cc:Work>
    <dc:type rdf:resource="http://purl.org/dc/dcmitype/StillImage"/>
    <dc:date>2026-07-10T23:11:43.486094</dc:date>
    <dc:format>image/svg+xml</dc:format>
    <dc:creator>
     <cc:Agent>
      <dc:title>Matplotlib v3.10.5, https://matplotlib.org/</dc:title>
     </cc:Agent>
    </dc:creator>
   </cc:Work>
  </rdf:RDF>
 </metadata>
 <defs>
  <style type="text/css">*{stroke-linejoin: round; stroke-linecap: butt}</style>
 </defs>
 <g id="figure_1">
  <g id="patch_1">
   <path d="M 0 189.834919 
L 264.2795 189.834919 
L 264.2795 0 
L 0 0 
z
" style="fill: #ffffff"/>
  </g>
  <g id="axes_1">
   <g id="patch_2">
    <path d="M 48.170895 141.321234 
L 216.108605 141.321234 
L 216.108605 13.245234 
L 48.170895 13.245234 
z
" style="fill: #ffffff"/>
   </g>
   <g id="matplotlib.axis_1">
    <g id="xtick_1">
     <g id="line2d_1">
      <path d="M 55.804427 141.321234 
L 55.804427 13.245234 
" clip-path="url(#pfd44bacb52)" style="fill: none; stroke-dasharray: 1.48,0.64; stroke-dashoffset: 0; stroke: #b0b0b0; stroke-opacity: 0.35; stroke-width: 0.4"/>
     </g>
     <g id="line2d_2">
      <defs>
       <path id="m85055085a7" d="M 0 0 
L 0 -3 
" style="stroke: #000000; stroke-width: 0.6"/>
      </defs>
      <g>
       <use xlink:href="#m85055085a7" x="55.804427" y="141.321234" style="stroke: #000000; stroke-width: 0.6"/>
      </g>
     </g>
     <g id="text_1">
      <!-- 0 -->
      <g transform="translate(54.054427 149.602016) scale(0.07 -0.07)">
       <defs>
        <path id="STIXGeneral-Regular-30" d="M 3046 2112 
Q 3046 1683 2963 1302 
Q 2880 922 2717 602 
Q 2554 282 2266 96 
Q 1978 -90 1600 -90 
Q 1210 -90 915 108 
Q 621 307 461 640 
Q 301 973 227 1350 
Q 154 1728 154 2150 
Q 154 2746 301 3222 
Q 448 3699 790 4012 
Q 1133 4326 1626 4326 
Q 2253 4326 2649 3712 
Q 3046 3098 3046 2112 
z
M 2432 2080 
Q 2432 3091 2217 3625 
Q 2003 4160 1587 4160 
Q 1190 4160 979 3622 
Q 768 3085 768 2106 
Q 768 1120 979 598 
Q 1190 77 1600 77 
Q 2003 77 2217 598 
Q 2432 1120 2432 2080 
z
" transform="scale(0.015625)"/>
       </defs>
       <use xlink:href="#STIXGeneral-Regular-30"/>
      </g>
     </g>
    </g>
    <g id="xtick_2">
     <g id="line2d_3">
      <path d="M 86.338556 141.321234 
L 86.338556 13.245234 
" clip-path="url(#pfd44bacb52)" style="fill: none; stroke-dasharray: 1.48,0.64; stroke-dashoffset: 0; stroke: #b0b0b0; stroke-opacity: 0.35; stroke-width: 0.4"/>
     </g>
     <g id="line2d_4">
      <g>
       <use xlink:href="#m85055085a7" x="86.338556" y="141.321234" style="stroke: #000000; stroke-width: 0.6"/>
      </g>
     </g>
     <g id="text_2">
      <!-- 4 -->
      <g transform="translate(84.588556 149.602016) scale(0.07 -0.07)">
       <defs>
        <path id="STIXGeneral-Regular-34" d="M 3027 1069 
L 2368 1069 
L 2368 0 
L 1869 0 
L 1869 1069 
L 77 1069 
L 77 1478 
L 2086 4326 
L 2368 4326 
L 2368 1478 
L 3027 1478 
L 3027 1069 
z
M 1869 1478 
L 1869 3674 
L 333 1478 
L 1869 1478 
z
" transform="scale(0.015625)"/>
       </defs>
       <use xlink:href="#STIXGeneral-Regular-34"/>
      </g>
     </g>
    </g>
    <g id="xtick_3">
     <g id="line2d_5">
      <path d="M 116.872685 141.321234 
L 116.872685 13.245234 
" clip-path="url(#pfd44bacb52)" style="fill: none; stroke-dasharray: 1.48,0.64; stroke-dashoffset: 0; stroke: #b0b0b0; stroke-opacity: 0.35; stroke-width: 0.4"/>
     </g>
     <g id="line2d_6">
      <g>
       <use xlink:href="#m85055085a7" x="116.872685" y="141.321234" style="stroke: #000000; stroke-width: 0.6"/>
      </g>
     </g>
     <g id="text_3">
      <!-- 8 -->
      <g transform="translate(115.122685 149.602016) scale(0.07 -0.07)">
       <defs>
        <path id="STIXGeneral-Regular-38" d="M 2848 992 
Q 2848 499 2505 204 
Q 2163 -90 1587 -90 
Q 1050 -90 704 204 
Q 358 499 358 954 
Q 358 1293 524 1533 
Q 691 1773 1190 2125 
Q 710 2522 553 2765 
Q 397 3008 397 3328 
Q 397 3782 745 4054 
Q 1094 4326 1638 4326 
Q 2106 4326 2410 4060 
Q 2714 3795 2714 3411 
Q 2714 3059 2531 2848 
Q 2349 2637 1856 2374 
Q 2432 1990 2640 1689 
Q 2848 1389 2848 992 
z
M 2272 3411 
Q 2272 3744 2086 3945 
Q 1901 4147 1574 4147 
Q 1248 4147 1059 3977 
Q 870 3808 870 3513 
Q 870 3219 1059 2979 
Q 1248 2739 1670 2490 
Q 1997 2682 2134 2896 
Q 2272 3110 2272 3411 
z
M 1734 1741 
L 1357 1997 
Q 1075 1766 960 1545 
Q 845 1325 845 1011 
Q 845 576 1065 333 
Q 1286 90 1658 90 
Q 1971 90 2166 285 
Q 2362 480 2362 794 
Q 2362 1082 2214 1299 
Q 2067 1517 1734 1741 
z
" transform="scale(0.015625)"/>
       </defs>
       <use xlink:href="#STIXGeneral-Regular-38"/>
      </g>
     </g>
    </g>
    <g id="xtick_4">
     <g id="line2d_7">
      <path d="M 147.406815 141.321234 
L 147.406815 13.245234 
" clip-path="url(#pfd44bacb52)" style="fill: none; stroke-dasharray: 1.48,0.64; stroke-dashoffset: 0; stroke: #b0b0b0; stroke-opacity: 0.35; stroke-width: 0.4"/>
     </g>
     <g id="line2d_8">
      <g>
       <use xlink:href="#m85055085a7" x="147.406815" y="141.321234" style="stroke: #000000; stroke-width: 0.6"/>
      </g>
     </g>
     <g id="text_4">
      <!-- 12 -->
      <g transform="translate(143.906815 149.602016) scale(0.07 -0.07)">
       <defs>
        <path id="STIXGeneral-Regular-31" d="M 2522 0 
L 755 0 
L 755 96 
Q 1107 115 1235 227 
Q 1363 339 1363 608 
L 1363 3482 
Q 1363 3795 1171 3795 
Q 1082 3795 883 3718 
L 710 3654 
L 710 3744 
L 1856 4326 
L 1914 4307 
L 1914 486 
Q 1914 275 2042 185 
Q 2170 96 2522 96 
L 2522 0 
z
" transform="scale(0.015625)"/>
        <path id="STIXGeneral-Regular-32" d="M 3034 877 
L 2688 0 
L 186 0 
L 186 77 
L 1325 1286 
Q 1773 1754 1965 2144 
Q 2157 2534 2157 2950 
Q 2157 3379 1920 3616 
Q 1683 3853 1267 3853 
Q 922 3853 720 3673 
Q 518 3494 326 3021 
L 192 3053 
Q 301 3648 630 3987 
Q 960 4326 1523 4326 
Q 2054 4326 2380 4006 
Q 2707 3686 2707 3200 
Q 2707 2477 1888 1613 
L 832 486 
L 2330 486 
Q 2541 486 2665 569 
Q 2790 653 2944 915 
L 3034 877 
z
" transform="scale(0.015625)"/>
       </defs>
       <use xlink:href="#STIXGeneral-Regular-31"/>
       <use xlink:href="#STIXGeneral-Regular-32" transform="translate(49.999985 0)"/>
      </g>
     </g>
    </g>
    <g id="xtick_5">
     <g id="line2d_9">
      <path d="M 177.940944 141.321234 
L 177.940944 13.245234 
" clip-path="url(#pfd44bacb52)" style="fill: none; stroke-dasharray: 1.48,0.64; stroke-dashoffset: 0; stroke: #b0b0b0; stroke-opacity: 0.35; stroke-width: 0.4"/>
     </g>
     <g id="line2d_10">
      <g>
       <use xlink:href="#m85055085a7" x="177.940944" y="141.321234" style="stroke: #000000; stroke-width: 0.6"/>
      </g>
     </g>
     <g id="text_5">
      <!-- 16 -->
      <g transform="translate(174.440944 149.602016) scale(0.07 -0.07)">
       <defs>
        <path id="STIXGeneral-Regular-36" d="M 2854 4378 
L 2867 4275 
Q 2112 4154 1606 3664 
Q 1101 3174 973 2451 
Q 1344 2739 1786 2739 
Q 2349 2739 2672 2380 
Q 2995 2022 2995 1402 
Q 2995 774 2669 378 
Q 2291 -90 1651 -90 
Q 870 -90 518 557 
Q 218 1107 218 1786 
Q 218 2835 915 3552 
Q 1312 3962 1731 4131 
Q 2150 4301 2854 4378 
z
M 2419 1203 
Q 2419 2445 1555 2445 
Q 1235 2445 1024 2275 
Q 813 2106 813 1702 
Q 813 954 1046 522 
Q 1280 90 1722 90 
Q 2061 90 2240 394 
Q 2419 698 2419 1203 
z
" transform="scale(0.015625)"/>
       </defs>
       <use xlink:href="#STIXGeneral-Regular-31"/>
       <use xlink:href="#STIXGeneral-Regular-36" transform="translate(49.999985 0)"/>
      </g>
     </g>
    </g>
    <g id="xtick_6">
     <g id="line2d_11">
      <path d="M 208.475073 141.321234 
L 208.475073 13.245234 
" clip-path="url(#pfd44bacb52)" style="fill: none; stroke-dasharray: 1.48,0.64; stroke-dashoffset: 0; stroke: #b0b0b0; stroke-opacity: 0.35; stroke-width: 0.4"/>
     </g>
     <g id="line2d_12">
      <g>
       <use xlink:href="#m85055085a7" x="208.475073" y="141.321234" style="stroke: #000000; stroke-width: 0.6"/>
      </g>
     </g>
     <g id="text_6">
      <!-- 20 -->
      <g transform="translate(204.975073 149.602016) scale(0.07 -0.07)">
       <use xlink:href="#STIXGeneral-Regular-32"/>
       <use xlink:href="#STIXGeneral-Regular-30" transform="translate(49.999985 0)"/>
      </g>
     </g>
    </g>
    <g id="text_7">
     <!-- Estimated SNR (dB) -->
     <g transform="translate(99.027875 160.584984) scale(0.08 -0.08)">
      <defs>
       <path id="STIXGeneral-Regular-45" d="M 3821 1082 
L 3526 0 
L 77 0 
L 77 122 
Q 442 147 538 252 
Q 634 358 634 730 
L 634 3520 
Q 634 3878 534 3987 
Q 435 4096 77 4115 
L 77 4237 
L 3469 4237 
L 3494 3322 
L 3334 3322 
Q 3264 3750 3085 3872 
Q 2906 3994 2349 3994 
L 1510 3994 
Q 1370 3994 1328 3952 
Q 1286 3910 1286 3763 
L 1286 2355 
L 2253 2355 
Q 2656 2355 2787 2470 
Q 2918 2586 2976 2970 
L 3123 2970 
L 3123 1472 
L 2976 1472 
Q 2918 1875 2790 1984 
Q 2662 2093 2253 2093 
L 1286 2093 
L 1286 538 
Q 1286 346 1420 291 
Q 1555 237 1933 237 
L 2163 237 
Q 2848 237 3136 403 
Q 3424 570 3642 1082 
L 3821 1082 
z
" transform="scale(0.015625)"/>
       <path id="STIXGeneral-Regular-73" d="M 998 1926 
L 1664 1523 
Q 1984 1331 2105 1164 
Q 2227 998 2227 736 
Q 2227 416 1961 176 
Q 1696 -64 1331 -64 
Q 1030 -64 864 -6 
Q 691 51 570 51 
Q 461 51 416 -26 
L 333 -26 
L 333 979 
L 435 979 
Q 538 512 730 294 
Q 922 77 1248 77 
Q 1485 77 1632 211 
Q 1779 346 1779 550 
Q 1779 845 1440 1030 
L 1094 1222 
Q 326 1651 326 2150 
Q 326 2522 566 2730 
Q 806 2938 1210 2938 
Q 1491 2938 1638 2867 
Q 1754 2816 1818 2816 
Q 1862 2816 1920 2880 
L 1990 2880 
L 2022 2010 
L 1926 2010 
Q 1818 2445 1654 2621 
Q 1491 2797 1203 2797 
Q 986 2797 854 2688 
Q 723 2579 723 2362 
Q 723 2253 796 2128 
Q 870 2003 998 1926 
z
" transform="scale(0.015625)"/>
       <path id="STIXGeneral-Regular-74" d="M 1702 493 
L 1786 422 
Q 1478 -64 1011 -64 
Q 448 -64 448 749 
L 448 2675 
L 109 2675 
Q 83 2694 83 2720 
Q 83 2771 192 2842 
Q 435 2982 813 3526 
Q 826 3546 874 3606 
Q 922 3667 941 3706 
Q 986 3706 986 3622 
L 986 2880 
L 1632 2880 
L 1632 2675 
L 986 2675 
L 986 845 
Q 986 538 1062 403 
Q 1139 269 1318 269 
Q 1510 269 1702 493 
z
" transform="scale(0.015625)"/>
       <path id="STIXGeneral-Regular-69" d="M 1152 4045 
Q 1152 3904 1056 3811 
Q 960 3718 819 3718 
Q 685 3718 592 3811 
Q 499 3904 499 4045 
Q 499 4179 595 4275 
Q 691 4371 826 4371 
Q 966 4371 1059 4275 
Q 1152 4179 1152 4045 
z
M 1619 0 
L 102 0 
L 102 96 
Q 435 115 521 211 
Q 608 307 608 666 
L 608 2118 
Q 608 2342 563 2432 
Q 518 2522 397 2522 
Q 243 2522 128 2490 
L 128 2592 
L 1120 2944 
L 1146 2918 
L 1146 672 
Q 1146 314 1226 218 
Q 1306 122 1619 96 
L 1619 0 
z
" transform="scale(0.015625)"/>
       <path id="STIXGeneral-Regular-6d" d="M 4960 0 
L 3565 0 
L 3565 96 
Q 3834 122 3907 208 
Q 3981 294 3981 576 
L 3981 1894 
Q 3981 2278 3869 2444 
Q 3757 2611 3488 2611 
Q 3264 2611 3107 2521 
Q 2950 2432 2803 2221 
L 2803 608 
Q 2803 301 2896 201 
Q 2989 102 3264 96 
L 3264 0 
L 1830 0 
L 1830 96 
Q 2112 115 2189 188 
Q 2266 262 2266 550 
L 2266 1901 
Q 2266 2611 1850 2611 
Q 1670 2611 1468 2531 
Q 1267 2451 1171 2336 
Q 1088 2240 1088 2227 
L 1088 448 
Q 1088 243 1177 176 
Q 1267 109 1523 96 
L 1523 0 
L 102 0 
L 102 96 
Q 371 102 460 195 
Q 550 288 550 563 
L 550 2150 
Q 550 2387 499 2480 
Q 448 2573 326 2573 
Q 230 2573 122 2547 
L 122 2656 
Q 557 2778 1011 2944 
L 1062 2925 
L 1062 2451 
L 1075 2451 
Q 1363 2752 1584 2848 
Q 1805 2944 2054 2944 
Q 2560 2944 2733 2406 
Q 3232 2944 3776 2944 
Q 4518 2944 4518 1792 
L 4518 493 
Q 4518 282 4582 202 
Q 4646 122 4794 109 
L 4960 96 
L 4960 0 
z
" transform="scale(0.015625)"/>
       <path id="STIXGeneral-Regular-61" d="M 2829 422 
L 2829 243 
Q 2586 -64 2253 -64 
Q 1888 -64 1843 403 
L 1837 403 
Q 1427 -64 909 -64 
Q 608 -64 422 112 
Q 237 288 237 602 
Q 237 1050 685 1350 
Q 992 1555 1837 1869 
L 1837 2214 
Q 1837 2502 1699 2646 
Q 1562 2790 1338 2790 
Q 1146 2790 1018 2697 
Q 890 2605 890 2477 
Q 890 2419 909 2348 
Q 928 2278 928 2208 
Q 928 2112 841 2029 
Q 755 1946 634 1946 
Q 525 1946 441 2029 
Q 358 2112 358 2240 
Q 358 2547 685 2752 
Q 986 2944 1421 2944 
Q 1939 2944 2176 2656 
Q 2291 2522 2323 2384 
Q 2355 2246 2355 1946 
L 2355 723 
Q 2355 301 2554 301 
Q 2682 301 2829 422 
z
M 1837 813 
L 1837 1715 
Q 1248 1510 1018 1293 
Q 800 1094 800 800 
Q 800 557 921 432 
Q 1043 307 1242 307 
Q 1453 307 1613 410 
Q 1747 506 1792 589 
Q 1837 672 1837 813 
z
" transform="scale(0.015625)"/>
       <path id="STIXGeneral-Regular-65" d="M 2611 1050 
L 2714 1005 
Q 2330 -64 1376 -64 
Q 813 -64 486 329 
Q 160 723 160 1389 
Q 160 2074 525 2509 
Q 890 2944 1485 2944 
Q 2061 2944 2374 2502 
Q 2560 2246 2592 1773 
L 621 1773 
Q 646 1370 700 1158 
Q 755 947 915 730 
Q 1184 378 1626 378 
Q 1939 378 2153 531 
Q 2368 685 2611 1050 
z
M 634 1978 
L 1939 1978 
Q 1882 2381 1750 2547 
Q 1619 2714 1312 2714 
Q 1043 2714 864 2525 
Q 685 2336 634 1978 
z
" transform="scale(0.015625)"/>
       <path id="STIXGeneral-Regular-64" d="M 3142 269 
L 2202 -64 
L 2176 -45 
L 2176 365 
Q 1869 -64 1357 -64 
Q 826 -64 499 317 
Q 173 698 173 1312 
Q 173 1990 563 2467 
Q 954 2944 1504 2944 
Q 1850 2944 2176 2669 
L 2176 3667 
Q 2176 3866 2118 3930 
Q 2061 3994 1882 3994 
Q 1792 3994 1741 3987 
L 1741 4090 
Q 2323 4243 2682 4371 
L 2714 4358 
L 2714 730 
Q 2714 506 2768 435 
Q 2822 365 2995 365 
Q 3034 365 3142 371 
L 3142 269 
z
M 2176 653 
L 2176 2125 
Q 2176 2381 1981 2573 
Q 1786 2765 1523 2765 
Q 1158 2765 940 2438 
Q 723 2112 723 1568 
Q 723 979 963 624 
Q 1203 269 1606 269 
Q 1907 269 2080 474 
Q 2176 582 2176 653 
z
" transform="scale(0.015625)"/>
       <path id="STIXGeneral-Regular-20" transform="scale(0.015625)"/>
       <path id="STIXGeneral-Regular-53" d="M 3002 2963 
L 2842 2963 
Q 2733 3360 2579 3565 
Q 2189 4064 1651 4064 
Q 1357 4064 1181 3894 
Q 1005 3725 1005 3456 
Q 1005 3328 1069 3206 
Q 1133 3085 1206 2998 
Q 1280 2912 1465 2784 
Q 1651 2656 1766 2589 
Q 1882 2522 2150 2362 
Q 2669 2061 2905 1763 
Q 3142 1466 3142 1107 
Q 3142 576 2771 243 
Q 2400 -90 1837 -90 
Q 1421 -90 1082 58 
Q 915 128 781 128 
Q 704 128 653 70 
Q 602 13 602 -83 
L 461 -83 
L 275 1274 
L 416 1274 
Q 845 141 1734 141 
Q 2074 141 2285 342 
Q 2496 544 2496 858 
Q 2496 1158 2310 1363 
Q 2003 1696 1235 2106 
Q 454 2522 454 3206 
Q 454 3718 768 4022 
Q 1082 4326 1568 4326 
Q 1907 4326 2240 4186 
Q 2413 4109 2522 4109 
Q 2688 4109 2726 4326 
L 2861 4326 
L 3002 2963 
z
" transform="scale(0.015625)"/>
       <path id="STIXGeneral-Regular-4e" d="M 4525 4237 
L 4525 4115 
Q 4198 4083 4102 4000 
Q 4000 3910 3958 3756 
Q 3917 3603 3917 3245 
L 3917 -70 
L 3802 -70 
L 979 3443 
L 979 960 
Q 979 474 1088 323 
Q 1197 173 1574 122 
L 1574 0 
L 77 0 
L 77 122 
Q 474 166 586 310 
Q 698 454 698 960 
L 698 3776 
Q 531 3981 416 4048 
Q 301 4115 77 4115 
L 77 4237 
L 1165 4237 
L 3635 1146 
L 3635 3322 
Q 3635 3808 3514 3949 
Q 3437 4032 3344 4061 
Q 3251 4090 3008 4115 
L 3008 4237 
L 4525 4237 
z
" transform="scale(0.015625)"/>
       <path id="STIXGeneral-Regular-52" d="M 4224 0 
L 3187 0 
L 1664 1971 
L 1306 1958 
L 1306 717 
Q 1306 352 1405 249 
Q 1504 147 1875 122 
L 1875 0 
L 109 0 
L 109 122 
Q 474 154 563 262 
Q 653 371 653 794 
L 653 3526 
Q 653 3885 563 3987 
Q 474 4090 109 4115 
L 109 4237 
L 1850 4237 
Q 2726 4237 3187 3859 
Q 3501 3603 3501 3091 
Q 3501 2221 2342 2042 
L 3622 422 
Q 3757 256 3878 198 
Q 4000 141 4224 122 
L 4224 0 
z
M 1306 3731 
L 1306 2195 
Q 1766 2202 1990 2246 
Q 2214 2291 2438 2413 
Q 2803 2618 2803 3142 
Q 2803 4000 1632 4000 
Q 1459 4000 1382 3945 
Q 1306 3891 1306 3731 
z
" transform="scale(0.015625)"/>
       <path id="STIXGeneral-Regular-28" d="M 1946 -1030 
L 1869 -1133 
Q 1126 -710 716 32 
Q 307 774 307 1613 
Q 307 3386 1888 4326 
L 1946 4224 
Q 1293 3667 1075 3126 
Q 858 2586 858 1632 
Q 858 685 1082 96 
Q 1306 -493 1946 -1030 
z
" transform="scale(0.015625)"/>
       <path id="STIXGeneral-Regular-42" d="M 2701 2234 
L 2701 2227 
Q 3181 2150 3482 1875 
Q 3795 1594 3795 1139 
Q 3795 608 3379 304 
Q 2963 0 2266 0 
L 109 0 
L 109 122 
Q 486 134 604 246 
Q 723 358 723 723 
L 723 3520 
Q 723 3891 614 3990 
Q 506 4090 109 4115 
L 109 4237 
L 1901 4237 
Q 2726 4237 3152 3958 
Q 3578 3680 3578 3168 
Q 3578 2733 3315 2502 
Q 3130 2342 2701 2234 
z
M 1376 2342 
L 1965 2342 
Q 2925 2342 2925 3136 
Q 2925 3546 2640 3773 
Q 2355 4000 1792 4000 
L 1530 4000 
Q 1376 4000 1376 3795 
L 1376 2342 
z
M 1376 2086 
L 1376 525 
Q 1376 365 1462 301 
Q 1549 237 1773 237 
Q 2208 237 2413 285 
Q 2618 333 2816 512 
Q 3059 723 3059 1146 
Q 3059 1632 2758 1830 
Q 2688 1882 2617 1917 
Q 2547 1952 2492 1974 
Q 2438 1997 2348 2016 
Q 2259 2035 2211 2044 
Q 2163 2054 2041 2060 
Q 1920 2067 1862 2070 
Q 1805 2074 1635 2080 
Q 1466 2086 1376 2086 
z
" transform="scale(0.015625)"/>
       <path id="STIXGeneral-Regular-29" d="M 186 4224 
L 262 4326 
Q 992 3891 1408 3148 
Q 1824 2406 1824 1581 
Q 1824 -166 243 -1133 
L 186 -1030 
Q 845 -486 1059 54 
Q 1274 595 1274 1562 
Q 1274 2534 1059 3120 
Q 845 3706 186 4224 
z
" transform="scale(0.015625)"/>
      </defs>
      <use xlink:href="#STIXGeneral-Regular-45"/>
      <use xlink:href="#STIXGeneral-Regular-73" transform="translate(61.099991 0)"/>
      <use xlink:href="#STIXGeneral-Regular-74" transform="translate(99.999985 0)"/>
      <use xlink:href="#STIXGeneral-Regular-69" transform="translate(127.799973 0)"/>
      <use xlink:href="#STIXGeneral-Regular-6d" transform="translate(155.59996 0)"/>
      <use xlink:href="#STIXGeneral-Regular-61" transform="translate(233.399948 0)"/>
      <use xlink:href="#STIXGeneral-Regular-74" transform="translate(277.799942 0)"/>
      <use xlink:href="#STIXGeneral-Regular-65" transform="translate(305.59993 0)"/>
      <use xlink:href="#STIXGeneral-Regular-64" transform="translate(349.999924 0)"/>
      <use xlink:href="#STIXGeneral-Regular-20" transform="translate(399.999908 0)"/>
      <use xlink:href="#STIXGeneral-Regular-53" transform="translate(424.999893 0)"/>
      <use xlink:href="#STIXGeneral-Regular-4e" transform="translate(480.599884 0)"/>
      <use xlink:href="#STIXGeneral-Regular-52" transform="translate(552.799866 0)"/>
      <use xlink:href="#STIXGeneral-Regular-20" transform="translate(619.499863 0)"/>
      <use xlink:href="#STIXGeneral-Regular-28" transform="translate(644.499847 0)"/>
      <use xlink:href="#STIXGeneral-Regular-64" transform="translate(677.799835 0)"/>
      <use xlink:href="#STIXGeneral-Regular-42" transform="translate(727.79982 0)"/>
      <use xlink:href="#STIXGeneral-Regular-29" transform="translate(794.499817 0)"/>
     </g>
    </g>
   </g>
   <g id="matplotlib.axis_2">
    <g id="ytick_1">
     <g id="line2d_13">
      <path d="M 48.170895 141.321234 
L 216.108605 141.321234 
" clip-path="url(#pfd44bacb52)" style="fill: none; stroke-dasharray: 1.48,0.64; stroke-dashoffset: 0; stroke: #b0b0b0; stroke-opacity: 0.35; stroke-width: 0.4"/>
     </g>
     <g id="line2d_14">
      <defs>
       <path id="mbbc075c7b6" d="M 0 0 
L 3 0 
" style="stroke: #000000; stroke-width: 0.6"/>
      </defs>
      <g>
       <use xlink:href="#mbbc075c7b6" x="48.170895" y="141.321234" style="stroke: #000000; stroke-width: 0.6"/>
      </g>
     </g>
     <g id="text_8">
      <!-- 0.60 -->
      <g transform="translate(32.420895 143.711625) scale(0.07 -0.07)">
       <defs>
        <path id="STIXGeneral-Regular-2e" d="M 1158 275 
Q 1158 134 1052 32 
Q 947 -70 800 -70 
Q 653 -70 550 32 
Q 448 134 448 281 
Q 448 429 553 534 
Q 659 640 806 640 
Q 947 640 1052 531 
Q 1158 422 1158 275 
z
" transform="scale(0.015625)"/>
       </defs>
       <use xlink:href="#STIXGeneral-Regular-30"/>
       <use xlink:href="#STIXGeneral-Regular-2e" transform="translate(49.999985 0)"/>
       <use xlink:href="#STIXGeneral-Regular-36" transform="translate(74.999969 0)"/>
       <use xlink:href="#STIXGeneral-Regular-30" transform="translate(124.999954 0)"/>
      </g>
     </g>
    </g>
    <g id="ytick_2">
     <g id="line2d_15">
      <path d="M 48.170895 122.486528 
L 216.108605 122.486528 
" clip-path="url(#pfd44bacb52)" style="fill: none; stroke-dasharray: 1.48,0.64; stroke-dashoffset: 0; stroke: #b0b0b0; stroke-opacity: 0.35; stroke-width: 0.4"/>
     </g>
     <g id="line2d_16">
      <g>
       <use xlink:href="#mbbc075c7b6" x="48.170895" y="122.486528" style="stroke: #000000; stroke-width: 0.6"/>
      </g>
     </g>
     <g id="text_9">
      <!-- 0.65 -->
      <g transform="translate(32.420895 124.876919) scale(0.07 -0.07)">
       <defs>
        <path id="STIXGeneral-Regular-35" d="M 2803 4358 
L 2573 3814 
Q 2534 3731 2400 3731 
L 1158 3731 
L 902 3187 
Q 1606 3053 1920 2896 
Q 2234 2739 2502 2368 
Q 2726 2061 2726 1555 
Q 2726 1094 2576 780 
Q 2426 467 2099 224 
Q 1664 -90 1011 -90 
Q 646 -90 422 19 
Q 198 128 198 307 
Q 198 550 486 550 
Q 717 550 960 352 
Q 1210 147 1414 147 
Q 1747 147 2012 480 
Q 2278 813 2278 1229 
Q 2278 1843 1850 2189 
Q 1293 2637 486 2637 
Q 410 2637 410 2688 
L 416 2720 
L 1114 4237 
L 2438 4237 
Q 2547 4237 2608 4269 
Q 2669 4301 2746 4403 
L 2803 4358 
z
" transform="scale(0.015625)"/>
       </defs>
       <use xlink:href="#STIXGeneral-Regular-30"/>
       <use xlink:href="#STIXGeneral-Regular-2e" transform="translate(49.999985 0)"/>
       <use xlink:href="#STIXGeneral-Regular-36" transform="translate(74.999969 0)"/>
       <use xlink:href="#STIXGeneral-Regular-35" transform="translate(124.999954 0)"/>
      </g>
     </g>
    </g>
    <g id="ytick_3">
     <g id="line2d_17">
      <path d="M 48.170895 103.651823 
L 216.108605 103.651823 
" clip-path="url(#pfd44bacb52)" style="fill: none; stroke-dasharray: 1.48,0.64; stroke-dashoffset: 0; stroke: #b0b0b0; stroke-opacity: 0.35; stroke-width: 0.4"/>
     </g>
     <g id="line2d_18">
      <g>
       <use xlink:href="#mbbc075c7b6" x="48.170895" y="103.651823" style="stroke: #000000; stroke-width: 0.6"/>
      </g>
     </g>
     <g id="text_10">
      <!-- 0.70 -->
      <g transform="translate(32.420895 106.042213) scale(0.07 -0.07)">
       <defs>
        <path id="STIXGeneral-Regular-37" d="M 2874 4134 
L 1517 -51 
L 1101 -51 
L 2368 3763 
L 992 3763 
Q 717 3763 582 3667 
Q 448 3571 243 3238 
L 128 3296 
L 512 4237 
L 2874 4237 
L 2874 4134 
z
" transform="scale(0.015625)"/>
       </defs>
       <use xlink:href="#STIXGeneral-Regular-30"/>
       <use xlink:href="#STIXGeneral-Regular-2e" transform="translate(49.999985 0)"/>
       <use xlink:href="#STIXGeneral-Regular-37" transform="translate(74.999969 0)"/>
       <use xlink:href="#STIXGeneral-Regular-30" transform="translate(124.999954 0)"/>
      </g>
     </g>
    </g>
    <g id="ytick_4">
     <g id="line2d_19">
      <path d="M 48.170895 84.817117 
L 216.108605 84.817117 
" clip-path="url(#pfd44bacb52)" style="fill: none; stroke-dasharray: 1.48,0.64; stroke-dashoffset: 0; stroke: #b0b0b0; stroke-opacity: 0.35; stroke-width: 0.4"/>
     </g>
     <g id="line2d_20">
      <g>
       <use xlink:href="#mbbc075c7b6" x="48.170895" y="84.817117" style="stroke: #000000; stroke-width: 0.6"/>
      </g>
     </g>
     <g id="text_11">
      <!-- 0.75 -->
      <g transform="translate(32.420895 87.207507) scale(0.07 -0.07)">
       <use xlink:href="#STIXGeneral-Regular-30"/>
       <use xlink:href="#STIXGeneral-Regular-2e" transform="translate(49.999985 0)"/>
       <use xlink:href="#STIXGeneral-Regular-37" transform="translate(74.999969 0)"/>
       <use xlink:href="#STIXGeneral-Regular-35" transform="translate(124.999954 0)"/>
      </g>
     </g>
    </g>
    <g id="ytick_5">
     <g id="line2d_21">
      <path d="M 48.170895 65.982411 
L 216.108605 65.982411 
" clip-path="url(#pfd44bacb52)" style="fill: none; stroke-dasharray: 1.48,0.64; stroke-dashoffset: 0; stroke: #b0b0b0; stroke-opacity: 0.35; stroke-width: 0.4"/>
     </g>
     <g id="line2d_22">
      <g>
       <use xlink:href="#mbbc075c7b6" x="48.170895" y="65.982411" style="stroke: #000000; stroke-width: 0.6"/>
      </g>
     </g>
     <g id="text_12">
      <!-- 0.80 -->
      <g transform="translate(32.420895 68.372801) scale(0.07 -0.07)">
       <use xlink:href="#STIXGeneral-Regular-30"/>
       <use xlink:href="#STIXGeneral-Regular-2e" transform="translate(49.999985 0)"/>
       <use xlink:href="#STIXGeneral-Regular-38" transform="translate(74.999969 0)"/>
       <use xlink:href="#STIXGeneral-Regular-30" transform="translate(124.999954 0)"/>
      </g>
     </g>
    </g>
    <g id="ytick_6">
     <g id="line2d_23">
      <path d="M 48.170895 47.147705 
L 216.108605 47.147705 
" clip-path="url(#pfd44bacb52)" style="fill: none; stroke-dasharray: 1.48,0.64; stroke-dashoffset: 0; stroke: #b0b0b0; stroke-opacity: 0.35; stroke-width: 0.4"/>
     </g>
     <g id="line2d_24">
      <g>
       <use xlink:href="#mbbc075c7b6" x="48.170895" y="47.147705" style="stroke: #000000; stroke-width: 0.6"/>
      </g>
     </g>
     <g id="text_13">
      <!-- 0.85 -->
      <g transform="translate(32.420895 49.538096) scale(0.07 -0.07)">
       <use xlink:href="#STIXGeneral-Regular-30"/>
       <use xlink:href="#STIXGeneral-Regular-2e" transform="translate(49.999985 0)"/>
       <use xlink:href="#STIXGeneral-Regular-38" transform="translate(74.999969 0)"/>
       <use xlink:href="#STIXGeneral-Regular-35" transform="translate(124.999954 0)"/>
      </g>
     </g>
    </g>
    <g id="ytick_7">
     <g id="line2d_25">
      <path d="M 48.170895 28.312999 
L 216.108605 28.312999 
" clip-path="url(#pfd44bacb52)" style="fill: none; stroke-dasharray: 1.48,0.64; stroke-dashoffset: 0; stroke: #b0b0b0; stroke-opacity: 0.35; stroke-width: 0.4"/>
     </g>
     <g id="line2d_26">
      <g>
       <use xlink:href="#mbbc075c7b6" x="48.170895" y="28.312999" style="stroke: #000000; stroke-width: 0.6"/>
      </g>
     </g>
     <g id="text_14">
      <!-- 0.90 -->
      <g transform="translate(32.420895 30.70339) scale(0.07 -0.07)">
       <defs>
        <path id="STIXGeneral-Regular-39" d="M 378 -141 
L 358 -13 
Q 1094 115 1603 608 
Q 2112 1101 2304 1882 
Q 1933 1517 1344 1517 
Q 826 1517 509 1875 
Q 192 2234 192 2816 
Q 192 3462 573 3894 
Q 954 4326 1523 4326 
Q 2131 4326 2528 3840 
Q 2938 3328 2938 2522 
Q 2938 1958 2742 1462 
Q 2547 966 2170 621 
Q 1773 262 1395 105 
Q 1018 -51 378 -141 
z
M 2317 2272 
L 2317 2522 
Q 2317 4147 1472 4147 
Q 1171 4147 1005 3930 
Q 909 3802 845 3546 
Q 781 3290 781 3034 
Q 781 2464 995 2128 
Q 1210 1792 1568 1792 
Q 1824 1792 2070 1917 
Q 2317 2042 2317 2272 
z
" transform="scale(0.015625)"/>
       </defs>
       <use xlink:href="#STIXGeneral-Regular-30"/>
       <use xlink:href="#STIXGeneral-Regular-2e" transform="translate(49.999985 0)"/>
       <use xlink:href="#STIXGeneral-Regular-39" transform="translate(74.999969 0)"/>
       <use xlink:href="#STIXGeneral-Regular-30" transform="translate(124.999954 0)"/>
      </g>
     </g>
    </g>
    <g id="text_15">
     <!-- AP@0.5 -->
     <g transform="translate(26.684645 91.083234) rotate(-90) scale(0.08 -0.08)">
      <defs>
       <path id="STIXGeneral-Regular-41" d="M 4525 0 
L 2893 0 
L 2893 122 
Q 3149 122 3245 179 
Q 3334 224 3334 333 
Q 3334 499 3213 781 
L 2950 1382 
L 1274 1382 
L 979 653 
Q 922 506 922 384 
Q 922 237 1027 179 
Q 1133 122 1370 122 
L 1370 0 
L 96 0 
L 96 122 
Q 365 147 486 316 
Q 608 486 902 1190 
L 2221 4314 
L 2349 4314 
L 3923 710 
Q 4064 378 4176 262 
Q 4288 147 4525 122 
L 4525 0 
z
M 2861 1645 
L 2118 3405 
L 1382 1645 
L 2861 1645 
z
" transform="scale(0.015625)"/>
       <path id="STIXGeneral-Regular-50" d="M 102 4237 
L 1760 4237 
Q 2669 4237 3149 3834 
Q 3469 3565 3469 3072 
Q 3469 2560 3104 2234 
Q 2835 1990 2553 1916 
Q 2272 1843 1734 1843 
Q 1549 1843 1293 1862 
L 1293 717 
Q 1293 352 1398 246 
Q 1504 141 1894 122 
L 1894 0 
L 102 0 
L 102 122 
Q 474 147 557 256 
Q 640 365 640 781 
L 640 3526 
Q 640 3885 547 3987 
Q 454 4090 102 4115 
L 102 4237 
z
M 1293 3770 
L 1293 2118 
Q 1510 2099 1683 2099 
Q 2202 2099 2486 2352 
Q 2771 2605 2771 3040 
Q 2771 3558 2476 3779 
Q 2182 4000 1517 4000 
Q 1382 4000 1337 3952 
Q 1293 3904 1293 3770 
z
" transform="scale(0.015625)"/>
       <path id="STIXGeneral-Regular-40" d="M 4403 467 
L 4480 275 
Q 3712 -90 3085 -90 
Q 2080 -90 1411 531 
Q 742 1152 742 2093 
Q 742 2630 985 3104 
Q 1229 3578 1645 3885 
Q 2240 4326 3078 4326 
Q 3968 4326 4573 3785 
Q 5178 3245 5178 2451 
Q 5178 1830 4826 1372 
Q 4474 915 4000 915 
Q 3782 915 3619 1046 
Q 3456 1178 3430 1382 
L 3418 1382 
Q 3098 922 2618 922 
Q 2374 922 2214 1117 
Q 2054 1312 2054 1638 
Q 2054 2253 2477 2803 
Q 2816 3251 3296 3251 
Q 3642 3251 3763 2918 
L 3776 2918 
L 3834 3162 
L 4275 3162 
L 3859 1536 
Q 3846 1472 3846 1427 
Q 3846 1126 4115 1126 
Q 4429 1126 4675 1513 
Q 4922 1901 4922 2387 
Q 4922 3104 4381 3616 
Q 3840 4128 3085 4128 
Q 2189 4128 1677 3392 
Q 1280 2822 1280 2061 
Q 1280 1222 1789 691 
Q 2298 160 3117 160 
Q 3770 160 4403 467 
z
M 3661 2586 
Q 3661 2970 3366 2970 
Q 3040 2970 2739 2522 
Q 2509 2176 2509 1754 
Q 2509 1498 2611 1347 
Q 2714 1197 2893 1197 
Q 3174 1197 3379 1568 
Q 3661 2099 3661 2586 
z
" transform="scale(0.015625)"/>
      </defs>
      <use xlink:href="#STIXGeneral-Regular-41"/>
      <use xlink:href="#STIXGeneral-Regular-50" transform="translate(72.199982 0)"/>
      <use xlink:href="#STIXGeneral-Regular-40" transform="translate(127.899979 0)"/>
      <use xlink:href="#STIXGeneral-Regular-30" transform="translate(219.999969 0)"/>
      <use xlink:href="#STIXGeneral-Regular-2e" transform="translate(269.999954 0)"/>
      <use xlink:href="#STIXGeneral-Regular-35" transform="translate(294.999939 0)"/>
     </g>
    </g>
   </g>
   <g id="line2d_27">
    <path d="M 55.804427 70.088377 
L 71.071492 69.447997 
L 86.338556 68.694608 
L 101.605621 68.016559 
L 116.872685 67.33851 
L 147.406815 66.208427 
L 177.940944 65.718725 
L 208.475073 65.492708 
" clip-path="url(#pfd44bacb52)" style="fill: none; stroke: #56b4e9; stroke-width: 1.4; stroke-linecap: square"/>
    <defs>
     <path id="m9fd4c7a668" d="M 0 1.75 
C 0.464105 1.75 0.909265 1.565609 1.237437 1.237437 
C 1.565609 0.909265 1.75 0.464105 1.75 0 
C 1.75 -0.464105 1.565609 -0.909265 1.237437 -1.237437 
C 0.909265 -1.565609 0.464105 -1.75 0 -1.75 
C -0.464105 -1.75 -0.909265 -1.565609 -1.237437 -1.237437 
C -1.565609 -0.909265 -1.75 -0.464105 -1.75 0 
C -1.75 0.464105 -1.565609 0.909265 -1.237437 1.237437 
C -0.909265 1.565609 -0.464105 1.75 0 1.75 
z
" style="stroke: #56b4e9"/>
    </defs>
    <g clip-path="url(#pfd44bacb52)">
     <use xlink:href="#m9fd4c7a668" x="55.804427" y="70.088377" style="fill: #56b4e9; stroke: #56b4e9"/>
     <use xlink:href="#m9fd4c7a668" x="71.071492" y="69.447997" style="fill: #56b4e9; stroke: #56b4e9"/>
     <use xlink:href="#m9fd4c7a668" x="86.338556" y="68.694608" style="fill: #56b4e9; stroke: #56b4e9"/>
     <use xlink:href="#m9fd4c7a668" x="101.605621" y="68.016559" style="fill: #56b4e9; stroke: #56b4e9"/>
     <use xlink:href="#m9fd4c7a668" x="116.872685" y="67.33851" style="fill: #56b4e9; stroke: #56b4e9"/>
     <use xlink:href="#m9fd4c7a668" x="147.406815" y="66.208427" style="fill: #56b4e9; stroke: #56b4e9"/>
     <use xlink:href="#m9fd4c7a668" x="177.940944" y="65.718725" style="fill: #56b4e9; stroke: #56b4e9"/>
     <use xlink:href="#m9fd4c7a668" x="208.475073" y="65.492708" style="fill: #56b4e9; stroke: #56b4e9"/>
    </g>
   </g>
   <g id="line2d_28">
    <path d="M 55.804427 115.668365 
L 101.605621 115.668365 
L 116.872685 114.500613 
L 124.506218 110.88435 
L 132.13975 105.007921 
L 147.406815 95.289213 
L 177.940944 94.385147 
" clip-path="url(#pfd44bacb52)" style="fill: none; stroke-dasharray: 1.4,2.31; stroke-dashoffset: 0; stroke: #d55e00; stroke-width: 1.4"/>
    <defs>
     <path id="md611b8cb54" d="M 0 -1.75 
L -1.75 1.75 
L 1.75 1.75 
z
" style="stroke: #d55e00; stroke-linejoin: miter"/>
    </defs>
    <g clip-path="url(#pfd44bacb52)">
     <use xlink:href="#md611b8cb54" x="55.804427" y="115.668365" style="fill: #d55e00; stroke: #d55e00; stroke-linejoin: miter"/>
     <use xlink:href="#md611b8cb54" x="101.605621" y="115.668365" style="fill: #d55e00; stroke: #d55e00; stroke-linejoin: miter"/>
     <use xlink:href="#md611b8cb54" x="116.872685" y="114.500613" style="fill: #d55e00; stroke: #d55e00; stroke-linejoin: miter"/>
     <use xlink:href="#md611b8cb54" x="124.506218" y="110.88435" style="fill: #d55e00; stroke: #d55e00; stroke-linejoin: miter"/>
     <use xlink:href="#md611b8cb54" x="132.13975" y="105.007921" style="fill: #d55e00; stroke: #d55e00; stroke-linejoin: miter"/>
     <use xlink:href="#md611b8cb54" x="147.406815" y="95.289213" style="fill: #d55e00; stroke: #d55e00; stroke-linejoin: miter"/>
     <use xlink:href="#md611b8cb54" x="177.940944" y="94.385147" style="fill: #d55e00; stroke: #d55e00; stroke-linejoin: miter"/>
    </g>
   </g>
   <g id="line2d_29">
    <path d="M 55.804427 115.668365 
L 147.406815 115.630696 
L 170.307411 112.12744 
L 193.208008 97.210353 
L 208.475073 90.9949 
" clip-path="url(#pfd44bacb52)" style="fill: none; stroke-dasharray: 1.4,2.31; stroke-dashoffset: 0; stroke: #e69f00; stroke-width: 1.4"/>
    <defs>
     <path id="m9b6fee80d3" d="M -0 1.75 
L 1.75 -1.75 
L -1.75 -1.75 
z
" style="stroke: #e69f00; stroke-linejoin: miter"/>
    </defs>
    <g clip-path="url(#pfd44bacb52)">
     <use xlink:href="#m9b6fee80d3" x="55.804427" y="115.668365" style="fill: #e69f00; stroke: #e69f00; stroke-linejoin: miter"/>
     <use xlink:href="#m9b6fee80d3" x="147.406815" y="115.630696" style="fill: #e69f00; stroke: #e69f00; stroke-linejoin: miter"/>
     <use xlink:href="#m9b6fee80d3" x="170.307411" y="112.12744" style="fill: #e69f00; stroke: #e69f00; stroke-linejoin: miter"/>
     <use xlink:href="#m9b6fee80d3" x="193.208008" y="97.210353" style="fill: #e69f00; stroke: #e69f00; stroke-linejoin: miter"/>
     <use xlink:href="#m9b6fee80d3" x="208.475073" y="90.9949" style="fill: #e69f00; stroke: #e69f00; stroke-linejoin: miter"/>
    </g>
   </g>
   <g id="line2d_30">
    <path d="M 48.170895 21.959737 
L 216.108605 21.959737 
" clip-path="url(#pfd44bacb52)" style="fill: none; stroke-dasharray: 4.07,1.76; stroke-dashoffset: 0; stroke: #555555; stroke-width: 1.1"/>
   </g>
   <g id="line2d_31">
    <path d="M 48.170895 31.007496 
L 216.108605 31.007496 
" clip-path="url(#pfd44bacb52)" style="fill: none; stroke-dasharray: 8.32,2.08,1.3,2.08; stroke-dashoffset: 0; stroke: #0072b2; stroke-width: 1.3"/>
   </g>
   <g id="patch_3">
    <path d="M 48.170895 141.321234 
L 48.170895 13.245234 
" style="fill: none; stroke: #000000; stroke-width: 0.6; stroke-linejoin: miter; stroke-linecap: square"/>
   </g>
   <g id="patch_4">
    <path d="M 48.170895 141.321234 
L 216.108605 141.321234 
" style="fill: none; stroke: #000000; stroke-width: 0.6; stroke-linejoin: miter; stroke-linecap: square"/>
   </g>
   <g id="text_16">
    <!-- AP@0.5 — AWGN -->
    <g transform="translate(97.884086 7.245234) scale(0.085 -0.085)">
     <defs>
      <path id="STIXGeneral-Regular-2014" d="M 6400 1286 
L 0 1286 
L 0 1600 
L 6400 1600 
L 6400 1286 
z
" transform="scale(0.015625)"/>
      <path id="STIXGeneral-Regular-57" d="M 5965 4237 
L 5965 4115 
Q 5709 4064 5616 3990 
Q 5523 3917 5434 3667 
Q 4704 1709 4128 -70 
L 4032 -70 
Q 3642 1011 3008 2637 
L 2022 -70 
L 1926 -70 
Q 1709 576 1277 1753 
Q 845 2931 698 3347 
Q 538 3808 406 3958 
Q 275 4109 32 4115 
L 32 4237 
L 1594 4237 
L 1594 4115 
Q 1357 4109 1270 4064 
Q 1184 4019 1184 3917 
Q 1184 3808 1254 3616 
L 2176 1210 
L 2842 3021 
L 2662 3501 
Q 2509 3917 2400 4013 
Q 2291 4109 2010 4115 
L 2010 4237 
L 3706 4237 
L 3706 4115 
Q 3213 4102 3213 3891 
Q 3213 3808 3322 3520 
L 4237 1190 
L 5043 3360 
Q 5152 3667 5152 3853 
Q 5152 4109 4704 4115 
L 4704 4237 
L 5965 4237 
z
" transform="scale(0.015625)"/>
      <path id="STIXGeneral-Regular-47" d="M 4538 2266 
L 4538 2150 
Q 4256 2125 4173 2035 
Q 4090 1946 4090 1638 
L 4090 358 
Q 3539 -90 2464 -90 
Q 1965 -90 1507 89 
Q 1050 269 736 595 
Q 205 1152 205 2093 
Q 205 3155 890 3776 
Q 1491 4326 2419 4326 
Q 2829 4326 3270 4179 
Q 3443 4115 3552 4115 
Q 3654 4115 3731 4176 
Q 3808 4237 3840 4326 
L 3981 4326 
L 4032 2976 
L 3885 2976 
Q 3680 3475 3430 3718 
Q 3059 4070 2496 4070 
Q 1856 4070 1427 3629 
Q 934 3136 934 2074 
Q 934 1190 1395 678 
Q 1856 166 2618 166 
Q 2982 166 3225 281 
Q 3469 397 3469 557 
L 3469 1562 
Q 3469 1933 3376 2025 
Q 3283 2118 2899 2150 
L 2899 2266 
L 4538 2266 
z
" transform="scale(0.015625)"/>
     </defs>
     <use xlink:href="#STIXGeneral-Regular-41"/>
     <use xlink:href="#STIXGeneral-Regular-50" transform="translate(72.199982 0)"/>
     <use xlink:href="#STIXGeneral-Regular-40" transform="translate(127.899979 0)"/>
     <use xlink:href="#STIXGeneral-Regular-30" transform="translate(219.999969 0)"/>
     <use xlink:href="#STIXGeneral-Regular-2e" transform="translate(269.999954 0)"/>
     <use xlink:href="#STIXGeneral-Regular-35" transform="translate(294.999939 0)"/>
     <use xlink:href="#STIXGeneral-Regular-20" transform="translate(344.999924 0)"/>
     <use xlink:href="#STIXGeneral-Regular-2014" transform="translate(369.999908 0)"/>
     <use xlink:href="#STIXGeneral-Regular-20" transform="translate(469.999893 0)"/>
     <use xlink:href="#STIXGeneral-Regular-41" transform="translate(494.999878 0)"/>
     <use xlink:href="#STIXGeneral-Regular-57" transform="translate(567.19986 0)"/>
     <use xlink:href="#STIXGeneral-Regular-47" transform="translate(661.599854 0)"/>
     <use xlink:href="#STIXGeneral-Regular-4e" transform="translate(733.799835 0)"/>
    </g>
   </g>
   <g id="line2d_32">
    <path d="M 55.804427 31.007496 
L 116.872685 31.007496 
L 147.406815 30.293643 
L 162.673879 24.140352 
L 177.940944 23.682277 
L 208.475073 23.651693 
" clip-path="url(#pfd44bacb52)" style="fill: none; stroke: #7b3294; stroke-width: 2; stroke-linecap: square"/>
    <defs>
     <path id="m96a1924007" d="M 0 -4.5 
L -1.010313 -1.390576 
L -4.279754 -1.390576 
L -1.634721 0.531153 
L -2.645034 3.640576 
L -0 1.718847 
L 2.645034 3.640576 
L 1.634721 0.531153 
L 4.279754 -1.390576 
L 1.010313 -1.390576 
z
" style="stroke: #7b3294; stroke-linejoin: bevel"/>
    </defs>
    <g clip-path="url(#pfd44bacb52)">
     <use xlink:href="#m96a1924007" x="55.804427" y="31.007496" style="fill: #7b3294; stroke: #7b3294; stroke-linejoin: bevel"/>
     <use xlink:href="#m96a1924007" x="116.872685" y="31.007496" style="fill: #7b3294; stroke: #7b3294; stroke-linejoin: bevel"/>
     <use xlink:href="#m96a1924007" x="147.406815" y="30.293643" style="fill: #7b3294; stroke: #7b3294; stroke-linejoin: bevel"/>
     <use xlink:href="#m96a1924007" x="162.673879" y="24.140352" style="fill: #7b3294; stroke: #7b3294; stroke-linejoin: bevel"/>
     <use xlink:href="#m96a1924007" x="177.940944" y="23.682277" style="fill: #7b3294; stroke: #7b3294; stroke-linejoin: bevel"/>
     <use xlink:href="#m96a1924007" x="208.475073" y="23.651693" style="fill: #7b3294; stroke: #7b3294; stroke-linejoin: bevel"/>
    </g>
   </g>
   <g id="legend_1">
    <g id="patch_5">
     <path d="M 2.62 188.394919 
L 261.6595 188.394919 
Q 262.8395 188.394919 262.8395 187.214919 
L 262.8395 171.066434 
Q 262.8395 169.886434 261.6595 169.886434 
L 2.62 169.886434 
Q 1.44 169.886434 1.44 171.066434 
L 1.44 187.214919 
Q 1.44 188.394919 2.62 188.394919 
z
" style="fill: #ffffff; opacity: 0.92; stroke: #b2b2b2; stroke-width: 0.6; stroke-linejoin: miter"/>
    </g>
    <g id="line2d_33">
     <path d="M 3.8 174.311434 
L 8.52 174.311434 
L 13.24 174.311434 
" style="fill: none; stroke: #56b4e9; stroke-width: 1.4; stroke-linecap: square"/>
     <g>
      <use xlink:href="#m9fd4c7a668" x="8.52" y="174.311434" style="fill: #56b4e9; stroke: #56b4e9"/>
     </g>
    </g>
    <g id="text_17">
     <!-- ImportanceMapJSCC -->
     <g transform="translate(17.96 176.376434) scale(0.059 -0.059)">
      <defs>
       <path id="STIXGeneral-Regular-49" d="M 2016 0 
L 115 0 
L 115 122 
Q 518 134 627 240 
Q 736 346 736 717 
L 736 3526 
Q 736 3898 633 3994 
Q 531 4090 115 4115 
L 115 4237 
L 2016 4237 
L 2016 4115 
Q 1613 4096 1501 3993 
Q 1389 3891 1389 3526 
L 1389 717 
Q 1389 358 1504 246 
Q 1619 134 2016 122 
L 2016 0 
z
" transform="scale(0.015625)"/>
       <path id="STIXGeneral-Regular-70" d="M 1018 2931 
L 1018 2438 
Q 1421 2944 1939 2944 
Q 2406 2944 2707 2560 
Q 3008 2176 3008 1581 
Q 3008 883 2621 409 
Q 2234 -64 1664 -64 
Q 1466 -64 1328 -6 
Q 1190 51 1018 211 
L 1018 -794 
Q 1018 -1094 1120 -1180 
Q 1222 -1267 1581 -1274 
L 1581 -1389 
L 32 -1389 
L 32 -1280 
Q 314 -1254 397 -1171 
Q 480 -1088 480 -838 
L 480 2157 
Q 480 2381 429 2451 
Q 378 2522 218 2522 
Q 115 2522 58 2515 
L 58 2618 
Q 506 2752 979 2944 
L 1018 2931 
z
M 1018 2138 
L 1018 563 
Q 1018 422 1238 281 
Q 1459 141 1683 141 
Q 2029 141 2243 467 
Q 2458 794 2458 1325 
Q 2458 1888 2243 2224 
Q 2029 2560 1670 2560 
Q 1446 2560 1232 2419 
Q 1018 2278 1018 2138 
z
" transform="scale(0.015625)"/>
       <path id="STIXGeneral-Regular-6f" d="M 3008 1478 
Q 3008 806 2608 371 
Q 2208 -64 1568 -64 
Q 979 -64 582 368 
Q 186 800 186 1459 
Q 186 2125 582 2534 
Q 979 2944 1626 2944 
Q 2221 2944 2614 2537 
Q 3008 2131 3008 1478 
z
M 2432 1306 
Q 2432 2035 2112 2445 
Q 1856 2765 1504 2765 
Q 1171 2765 966 2493 
Q 762 2221 762 1747 
Q 762 928 1101 435 
Q 1318 115 1677 115 
Q 2029 115 2230 432 
Q 2432 749 2432 1306 
z
" transform="scale(0.015625)"/>
       <path id="STIXGeneral-Regular-72" d="M 1024 2931 
L 1024 2342 
Q 1267 2688 1430 2816 
Q 1594 2944 1792 2944 
Q 1958 2944 2051 2854 
Q 2144 2765 2144 2605 
Q 2144 2470 2077 2393 
Q 2010 2317 1894 2317 
Q 1773 2317 1638 2445 
Q 1536 2541 1472 2541 
Q 1338 2541 1181 2355 
Q 1024 2170 1024 2016 
L 1024 576 
Q 1024 301 1133 205 
Q 1242 109 1568 96 
L 1568 0 
L 32 0 
L 32 96 
Q 339 154 412 224 
Q 486 294 486 538 
L 486 2138 
Q 486 2349 438 2435 
Q 390 2522 269 2522 
Q 166 2522 45 2496 
L 45 2598 
Q 448 2726 992 2944 
L 1024 2931 
z
" transform="scale(0.015625)"/>
       <path id="STIXGeneral-Regular-6e" d="M 3104 0 
L 1773 0 
L 1779 96 
Q 2016 115 2096 233 
Q 2176 352 2176 672 
L 2176 1946 
Q 2176 2592 1709 2592 
Q 1549 2592 1408 2515 
Q 1267 2438 1050 2227 
L 1050 461 
Q 1050 269 1136 192 
Q 1222 115 1466 96 
L 1466 0 
L 115 0 
L 115 96 
Q 358 115 435 214 
Q 512 314 512 602 
L 512 2157 
Q 512 2394 467 2483 
Q 422 2573 288 2573 
Q 160 2573 102 2547 
L 102 2656 
Q 550 2784 979 2944 
L 1030 2925 
L 1030 2426 
L 1037 2426 
Q 1491 2944 1958 2944 
Q 2323 2944 2518 2688 
Q 2714 2432 2714 1958 
L 2714 544 
Q 2714 288 2790 205 
Q 2867 122 3104 96 
L 3104 0 
z
" transform="scale(0.015625)"/>
       <path id="STIXGeneral-Regular-63" d="M 2547 998 
L 2637 941 
Q 2362 403 2112 205 
Q 1786 -64 1376 -64 
Q 845 -64 502 336 
Q 160 736 160 1357 
Q 160 2170 698 2618 
Q 1094 2944 1562 2944 
Q 1965 2944 2256 2749 
Q 2547 2554 2547 2285 
Q 2547 2176 2457 2096 
Q 2368 2016 2246 2016 
Q 2022 2016 1939 2310 
L 1901 2451 
Q 1850 2630 1773 2694 
Q 1696 2758 1523 2758 
Q 1133 2758 893 2451 
Q 653 2144 653 1645 
Q 653 1094 928 745 
Q 1203 397 1645 397 
Q 1920 397 2118 528 
Q 2317 659 2547 998 
z
" transform="scale(0.015625)"/>
       <path id="STIXGeneral-Regular-4d" d="M 5530 0 
L 3738 0 
L 3738 122 
Q 4115 147 4214 265 
Q 4314 384 4314 787 
L 4314 3661 
L 2682 0 
L 2592 0 
L 979 3514 
L 979 966 
Q 979 448 1088 294 
Q 1197 141 1574 122 
L 1574 0 
L 77 0 
L 77 122 
Q 358 141 480 205 
Q 602 269 650 432 
Q 698 595 698 966 
L 698 3514 
Q 698 3878 589 3984 
Q 480 4090 90 4115 
L 90 4237 
L 1357 4237 
L 2835 1024 
L 4250 4237 
L 5523 4237 
L 5523 4115 
Q 5178 4109 5072 3993 
Q 4966 3878 4966 3520 
L 4966 717 
Q 4966 378 5072 262 
Q 5178 147 5530 122 
L 5530 0 
z
" transform="scale(0.015625)"/>
       <path id="STIXGeneral-Regular-4a" d="M 2266 4237 
L 2266 4115 
Q 1875 4083 1776 3984 
Q 1677 3885 1677 3514 
L 1677 1184 
Q 1677 -90 608 -90 
Q 314 -90 138 32 
Q -38 154 -38 371 
Q -38 499 54 601 
Q 147 704 275 704 
Q 486 704 589 435 
Q 602 403 621 348 
Q 640 294 649 265 
Q 659 237 678 208 
Q 698 179 723 166 
Q 749 154 787 154 
Q 928 154 976 253 
Q 1024 352 1024 602 
L 1024 3520 
Q 1024 3898 928 3990 
Q 832 4083 429 4115 
L 429 4237 
L 2266 4237 
z
" transform="scale(0.015625)"/>
       <path id="STIXGeneral-Regular-43" d="M 3930 838 
L 4051 723 
Q 3482 -90 2304 -90 
Q 1376 -90 794 480 
Q 179 1082 179 2080 
Q 179 3014 755 3661 
Q 1357 4326 2310 4326 
Q 2720 4326 3072 4230 
Q 3475 4115 3514 4115 
Q 3725 4115 3782 4326 
L 3910 4326 
L 3968 2874 
L 3821 2874 
Q 3718 3334 3488 3584 
Q 3034 4070 2458 4070 
Q 1747 4070 1334 3548 
Q 922 3027 922 2182 
Q 922 1152 1382 653 
Q 1811 192 2522 192 
Q 2944 192 3251 339 
Q 3558 486 3930 838 
z
" transform="scale(0.015625)"/>
      </defs>
      <use xlink:href="#STIXGeneral-Regular-49"/>
      <use xlink:href="#STIXGeneral-Regular-6d" transform="translate(33.299988 0)"/>
      <use xlink:href="#STIXGeneral-Regular-70" transform="translate(111.099976 0)"/>
      <use xlink:href="#STIXGeneral-Regular-6f" transform="translate(161.09996 0)"/>
      <use xlink:href="#STIXGeneral-Regular-72" transform="translate(211.099945 0)"/>
      <use xlink:href="#STIXGeneral-Regular-74" transform="translate(244.399933 0)"/>
      <use xlink:href="#STIXGeneral-Regular-61" transform="translate(272.199921 0)"/>
      <use xlink:href="#STIXGeneral-Regular-6e" transform="translate(316.599915 0)"/>
      <use xlink:href="#STIXGeneral-Regular-63" transform="translate(366.599899 0)"/>
      <use xlink:href="#STIXGeneral-Regular-65" transform="translate(410.999893 0)"/>
      <use xlink:href="#STIXGeneral-Regular-4d" transform="translate(455.399887 0)"/>
      <use xlink:href="#STIXGeneral-Regular-61" transform="translate(544.299881 0)"/>
      <use xlink:href="#STIXGeneral-Regular-70" transform="translate(588.699875 0)"/>
      <use xlink:href="#STIXGeneral-Regular-4a" transform="translate(638.69986 0)"/>
      <use xlink:href="#STIXGeneral-Regular-53" transform="translate(675.999847 0)"/>
      <use xlink:href="#STIXGeneral-Regular-43" transform="translate(731.599838 0)"/>
      <use xlink:href="#STIXGeneral-Regular-43" transform="translate(798.299835 0)"/>
     </g>
    </g>
    <g id="line2d_34">
     <path d="M 3.8 182.671919 
L 8.52 182.671919 
L 13.24 182.671919 
" style="fill: none; stroke-dasharray: 1.4,2.31; stroke-dashoffset: 0; stroke: #d55e00; stroke-width: 1.4"/>
     <g>
      <use xlink:href="#md611b8cb54" x="8.52" y="182.671919" style="fill: #d55e00; stroke: #d55e00; stroke-linejoin: miter"/>
     </g>
    </g>
    <g id="text_18">
     <!-- LDPC + 16-QAM (Fixed $C_{16}$) -->
     <g transform="translate(17.96 184.736919) scale(0.059 -0.059)">
      <defs>
       <path id="STIXGeneral-Regular-4c" d="M 3827 1114 
L 3520 0 
L 77 0 
L 77 122 
Q 429 141 531 256 
Q 634 371 634 736 
L 634 3494 
Q 634 3872 541 3981 
Q 448 4090 77 4115 
L 77 4237 
L 1888 4237 
L 1888 4115 
Q 1498 4090 1392 3984 
Q 1286 3878 1286 3507 
L 1286 538 
Q 1286 358 1398 304 
Q 1510 250 1862 250 
L 2310 250 
Q 3085 250 3392 640 
Q 3520 813 3661 1114 
L 3827 1114 
z
" transform="scale(0.015625)"/>
       <path id="STIXGeneral-Regular-44" d="M 102 4237 
L 1830 4237 
Q 3078 4237 3750 3654 
Q 4384 3110 4384 2138 
Q 4384 966 3514 410 
Q 2880 0 1901 0 
L 102 0 
L 102 122 
Q 474 147 570 252 
Q 666 358 666 736 
L 666 3520 
Q 666 3891 570 3990 
Q 474 4090 102 4115 
L 102 4237 
z
M 1318 3731 
L 1318 538 
Q 1318 365 1379 301 
Q 1440 237 1626 237 
Q 2125 237 2432 307 
Q 2739 378 3021 570 
Q 3686 1018 3686 2099 
Q 3686 3027 3078 3558 
Q 2803 3802 2476 3901 
Q 2150 4000 1658 4000 
Q 1472 4000 1395 3942 
Q 1318 3885 1318 3731 
z
" transform="scale(0.015625)"/>
       <path id="STIXGeneral-Regular-2b" d="M 4070 1408 
L 2400 1408 
L 2400 -262 
L 1978 -262 
L 1978 1408 
L 307 1408 
L 307 1830 
L 1978 1830 
L 1978 3501 
L 2400 3501 
L 2400 1830 
L 4070 1830 
L 4070 1408 
z
" transform="scale(0.015625)"/>
       <path id="STIXGeneral-Regular-2d" d="M 1824 1242 
L 250 1242 
L 250 1645 
L 1824 1645 
L 1824 1242 
z
" transform="scale(0.015625)"/>
       <path id="STIXGeneral-Regular-51" d="M 4486 -1133 
L 4179 -1133 
Q 2586 -1133 1958 -339 
L 1696 -6 
Q 1312 128 1097 265 
Q 883 403 704 640 
Q 218 1286 218 2125 
Q 218 3123 806 3724 
Q 1395 4326 2310 4326 
Q 3232 4326 3817 3721 
Q 4403 3117 4403 2131 
Q 4403 1568 4236 1158 
Q 4070 749 3712 410 
Q 3514 211 3293 115 
Q 3072 19 2726 -45 
Q 3066 -531 3491 -758 
Q 3917 -986 4486 -1018 
L 4486 -1133 
z
M 3674 2163 
Q 3674 2714 3520 3146 
Q 3366 3578 3091 3808 
Q 2746 4096 2291 4096 
Q 1741 4096 1370 3642 
Q 1178 3418 1062 3008 
Q 947 2598 947 2144 
Q 947 1158 1318 640 
Q 1472 416 1750 278 
Q 2029 141 2310 141 
Q 2867 141 3264 602 
Q 3456 819 3565 1248 
Q 3674 1677 3674 2163 
z
" transform="scale(0.015625)"/>
       <path id="STIXGeneral-Regular-46" d="M 3494 3322 
L 3334 3322 
Q 3264 3757 3094 3875 
Q 2925 3994 2349 3994 
L 1504 3994 
Q 1370 3994 1328 3946 
Q 1286 3898 1286 3744 
L 1286 2355 
L 2195 2355 
Q 2598 2355 2736 2470 
Q 2874 2586 2918 2963 
L 3066 2963 
L 3066 1472 
L 2918 1472 
Q 2880 1862 2745 1977 
Q 2611 2093 2195 2093 
L 1286 2093 
L 1286 717 
Q 1286 352 1392 246 
Q 1498 141 1869 122 
L 1869 0 
L 70 0 
L 70 122 
Q 435 147 534 259 
Q 634 371 634 787 
L 634 3526 
Q 634 3878 538 3984 
Q 442 4090 77 4115 
L 77 4237 
L 3462 4237 
L 3494 3322 
z
" transform="scale(0.015625)"/>
       <path id="STIXGeneral-Regular-78" d="M 3066 0 
L 1779 0 
L 1779 96 
Q 1939 109 1987 137 
Q 2035 166 2035 250 
Q 2035 307 1997 365 
L 1414 1261 
L 909 474 
Q 781 275 781 211 
Q 781 96 1037 96 
L 1037 0 
L 109 0 
L 109 96 
Q 269 109 355 169 
Q 442 230 576 422 
L 1306 1478 
L 704 2400 
Q 557 2624 454 2704 
Q 352 2784 211 2784 
L 154 2784 
L 154 2880 
L 1478 2880 
L 1478 2784 
Q 1203 2778 1203 2643 
Q 1203 2509 1498 2074 
Q 1581 1958 1587 1946 
Q 1619 1990 1779 2227 
Q 1811 2285 1856 2349 
Q 1901 2413 1923 2451 
Q 1946 2490 1971 2528 
Q 1997 2566 2006 2595 
Q 2016 2624 2016 2643 
Q 2016 2765 1760 2784 
L 1760 2880 
L 2771 2880 
L 2771 2784 
Q 2445 2771 2253 2502 
L 1722 1734 
L 2541 480 
Q 2790 96 3066 96 
L 3066 0 
z
" transform="scale(0.015625)"/>
       <path id="STIXGeneral-Italic-43" d="M 4410 4250 
L 4173 2970 
L 4058 2989 
Q 3942 4032 3104 4032 
Q 2406 4032 1830 3411 
Q 1491 3053 1315 2541 
Q 1139 2029 1139 1485 
Q 1139 173 2259 173 
Q 2656 173 2985 339 
Q 3315 506 3725 934 
L 3840 838 
Q 3411 333 2998 109 
Q 2586 -115 2093 -115 
Q 1344 -115 883 329 
Q 422 774 422 1555 
Q 422 2214 748 2812 
Q 1075 3411 1619 3795 
Q 2272 4262 3021 4262 
Q 3462 4262 3770 4154 
Q 3898 4109 4032 4109 
Q 4205 4109 4275 4250 
L 4410 4250 
z
" transform="scale(0.015625)"/>
      </defs>
      <use xlink:href="#STIXGeneral-Regular-4c" transform="translate(0 0.59375)"/>
      <use xlink:href="#STIXGeneral-Regular-44" transform="translate(61.099991 0.59375)"/>
      <use xlink:href="#STIXGeneral-Regular-50" transform="translate(133.299973 0.59375)"/>
      <use xlink:href="#STIXGeneral-Regular-43" transform="translate(188.999969 0.59375)"/>
      <use xlink:href="#STIXGeneral-Regular-20" transform="translate(255.699966 0.59375)"/>
      <use xlink:href="#STIXGeneral-Regular-2b" transform="translate(280.699951 0.59375)"/>
      <use xlink:href="#STIXGeneral-Regular-20" transform="translate(349.199936 0.59375)"/>
      <use xlink:href="#STIXGeneral-Regular-31" transform="translate(374.199921 0.59375)"/>
      <use xlink:href="#STIXGeneral-Regular-36" transform="translate(424.199905 0.59375)"/>
      <use xlink:href="#STIXGeneral-Regular-2d" transform="translate(474.19989 0.59375)"/>
      <use xlink:href="#STIXGeneral-Regular-51" transform="translate(507.499878 0.59375)"/>
      <use xlink:href="#STIXGeneral-Regular-41" transform="translate(579.69986 0.59375)"/>
      <use xlink:href="#STIXGeneral-Regular-4d" transform="translate(651.899841 0.59375)"/>
      <use xlink:href="#STIXGeneral-Regular-20" transform="translate(740.799835 0.59375)"/>
      <use xlink:href="#STIXGeneral-Regular-28" transform="translate(765.79982 0.59375)"/>
      <use xlink:href="#STIXGeneral-Regular-46" transform="translate(799.099808 0.59375)"/>
      <use xlink:href="#STIXGeneral-Regular-69" transform="translate(854.699799 0.59375)"/>
      <use xlink:href="#STIXGeneral-Regular-78" transform="translate(882.499786 0.59375)"/>
      <use xlink:href="#STIXGeneral-Regular-65" transform="translate(932.499771 0.59375)"/>
      <use xlink:href="#STIXGeneral-Regular-64" transform="translate(976.899765 0.59375)"/>
      <use xlink:href="#STIXGeneral-Regular-20" transform="translate(1026.89975 0.59375)"/>
      <use xlink:href="#STIXGeneral-Italic-43" transform="translate(1051.899734 0.59375)"/>
      <use xlink:href="#STIXGeneral-Regular-31" transform="translate(1118.599731 -12.634375) scale(0.7)"/>
      <use xlink:href="#STIXGeneral-Regular-36" transform="translate(1153.599721 -12.634375) scale(0.7)"/>
      <use xlink:href="#STIXGeneral-Regular-29" transform="translate(1193.009085 0.59375)"/>
     </g>
    </g>
    <g id="line2d_35">
     <path d="M 96.253 174.311434 
L 100.973 174.311434 
L 105.693 174.311434 
" style="fill: none; stroke-dasharray: 1.4,2.31; stroke-dashoffset: 0; stroke: #e69f00; stroke-width: 1.4"/>
     <g>
      <use xlink:href="#m9b6fee80d3" x="100.973" y="174.311434" style="fill: #e69f00; stroke: #e69f00; stroke-linejoin: miter"/>
     </g>
    </g>
    <g id="text_19">
     <!-- LDPC + 256-QAM (Fixed $C_{256}$) -->
     <g transform="translate(110.413 176.376434) scale(0.059 -0.059)">
      <use xlink:href="#STIXGeneral-Regular-4c" transform="translate(0 0.203125)"/>
      <use xlink:href="#STIXGeneral-Regular-44" transform="translate(61.099991 0.203125)"/>
      <use xlink:href="#STIXGeneral-Regular-50" transform="translate(133.299973 0.203125)"/>
      <use xlink:href="#STIXGeneral-Regular-43" transform="translate(188.999969 0.203125)"/>
      <use xlink:href="#STIXGeneral-Regular-20" transform="translate(255.699966 0.203125)"/>
      <use xlink:href="#STIXGeneral-Regular-2b" transform="translate(280.699951 0.203125)"/>
      <use xlink:href="#STIXGeneral-Regular-20" transform="translate(349.199936 0.203125)"/>
      <use xlink:href="#STIXGeneral-Regular-32" transform="translate(374.199921 0.203125)"/>
      <use xlink:href="#STIXGeneral-Regular-35" transform="translate(424.199905 0.203125)"/>
      <use xlink:href="#STIXGeneral-Regular-36" transform="translate(474.19989 0.203125)"/>
      <use xlink:href="#STIXGeneral-Regular-2d" transform="translate(524.199875 0.203125)"/>
      <use xlink:href="#STIXGeneral-Regular-51" transform="translate(557.499863 0.203125)"/>
      <use xlink:href="#STIXGeneral-Regular-41" transform="translate(629.699844 0.203125)"/>
      <use xlink:href="#STIXGeneral-Regular-4d" transform="translate(701.899826 0.203125)"/>
      <use xlink:href="#STIXGeneral-Regular-20" transform="translate(790.79982 0.203125)"/>
      <use xlink:href="#STIXGeneral-Regular-28" transform="translate(815.799805 0.203125)"/>
      <use xlink:href="#STIXGeneral-Regular-46" transform="translate(849.099792 0.203125)"/>
      <use xlink:href="#STIXGeneral-Regular-69" transform="translate(904.699783 0.203125)"/>
      <use xlink:href="#STIXGeneral-Regular-78" transform="translate(932.499771 0.203125)"/>
      <use xlink:href="#STIXGeneral-Regular-65" transform="translate(982.499756 0.203125)"/>
      <use xlink:href="#STIXGeneral-Regular-64" transform="translate(1026.89975 0.203125)"/>
      <use xlink:href="#STIXGeneral-Regular-20" transform="translate(1076.899734 0.203125)"/>
      <use xlink:href="#STIXGeneral-Italic-43" transform="translate(1101.899719 0.203125)"/>
      <use xlink:href="#STIXGeneral-Regular-32" transform="translate(1168.599716 -13.025) scale(0.7)"/>
      <use xlink:href="#STIXGeneral-Regular-35" transform="translate(1203.599706 -13.025) scale(0.7)"/>
      <use xlink:href="#STIXGeneral-Regular-36" transform="translate(1238.599695 -13.025) scale(0.7)"/>
      <use xlink:href="#STIXGeneral-Regular-29" transform="translate(1278.009059 0.203125)"/>
     </g>
    </g>
    <g id="line2d_36">
     <path d="M 96.253 182.671919 
L 100.973 182.671919 
L 105.693 182.671919 
" style="fill: none; stroke-dasharray: 4.07,1.76; stroke-dashoffset: 0; stroke: #555555; stroke-width: 1.1"/>
    </g>
    <g id="text_20">
     <!-- Feature ceiling (perfect ch.) -->
     <g transform="translate(110.413 184.736919) scale(0.059 -0.059)">
      <defs>
       <path id="STIXGeneral-Regular-75" d="M 3072 320 
L 3072 230 
Q 2573 96 2195 -58 
L 2163 -38 
L 2163 486 
L 2150 486 
Q 1747 -64 1235 -64 
Q 870 -64 662 160 
Q 454 384 454 755 
L 454 2362 
Q 454 2598 371 2688 
Q 288 2778 58 2790 
L 58 2880 
L 992 2880 
L 992 813 
Q 992 595 1123 451 
Q 1254 307 1446 307 
Q 1760 307 1984 506 
Q 2067 582 2099 649 
Q 2131 717 2131 877 
L 2131 2355 
Q 2131 2605 2041 2678 
Q 1952 2752 1658 2771 
L 1658 2880 
L 2669 2880 
L 2669 685 
Q 2669 461 2742 390 
Q 2816 320 3034 320 
L 3072 320 
z
" transform="scale(0.015625)"/>
       <path id="STIXGeneral-Regular-6c" d="M 1645 0 
L 134 0 
L 134 96 
Q 435 122 531 221 
Q 627 320 627 589 
L 627 3590 
Q 627 3821 569 3910 
Q 512 4000 358 4000 
Q 224 4000 122 3987 
L 122 4090 
Q 730 4237 1133 4371 
L 1165 4346 
L 1165 557 
Q 1165 288 1254 201 
Q 1344 115 1645 96 
L 1645 0 
z
" transform="scale(0.015625)"/>
       <path id="STIXGeneral-Regular-67" d="M 3008 2483 
L 2477 2483 
Q 2598 2208 2598 1946 
Q 2598 1453 2265 1203 
Q 1933 954 1600 954 
Q 1530 954 1357 973 
L 1235 986 
Q 1107 947 979 812 
Q 851 678 851 582 
Q 851 435 1350 410 
L 2176 371 
Q 2528 358 2739 172 
Q 2950 -13 2950 -314 
Q 2950 -685 2566 -986 
Q 2035 -1395 1286 -1395 
Q 826 -1395 502 -1212 
Q 179 -1030 179 -774 
Q 179 -595 320 -419 
Q 461 -243 806 6 
Q 602 102 534 172 
Q 467 243 467 346 
Q 467 531 762 787 
Q 909 915 1037 1043 
Q 717 1203 579 1401 
Q 442 1600 442 1901 
Q 442 2336 752 2640 
Q 1062 2944 1510 2944 
Q 1766 2944 2022 2848 
L 2163 2797 
Q 2349 2733 2515 2733 
L 3008 2733 
L 3008 2483 
z
M 973 2163 
L 973 2144 
Q 973 1683 1155 1398 
Q 1338 1114 1632 1114 
Q 1850 1114 1978 1270 
Q 2106 1427 2106 1690 
Q 2106 2112 1914 2464 
Q 1754 2765 1446 2765 
Q 1222 2765 1097 2605 
Q 973 2445 973 2163 
z
M 2771 -410 
Q 2771 -230 2595 -163 
Q 2419 -96 1978 -96 
Q 1344 -96 941 -13 
Q 749 -243 688 -348 
Q 627 -454 627 -563 
Q 627 -774 880 -902 
Q 1133 -1030 1555 -1030 
Q 2099 -1030 2435 -860 
Q 2771 -691 2771 -410 
z
" transform="scale(0.015625)"/>
       <path id="STIXGeneral-Regular-66" d="M 134 2880 
L 659 2880 
Q 666 3264 710 3478 
Q 755 3693 883 3910 
Q 1152 4371 1786 4371 
Q 2074 4371 2262 4259 
Q 2451 4147 2451 3974 
Q 2451 3866 2374 3789 
Q 2298 3712 2182 3712 
Q 2029 3712 1894 3942 
Q 1741 4192 1555 4192 
Q 1197 4192 1197 3622 
L 1197 2880 
L 1978 2880 
L 1978 2675 
L 1197 2675 
L 1197 666 
Q 1197 307 1299 208 
Q 1402 109 1792 96 
L 1792 0 
L 128 0 
L 128 96 
Q 474 115 566 214 
Q 659 314 659 666 
L 659 2675 
L 134 2675 
L 134 2880 
z
" transform="scale(0.015625)"/>
       <path id="STIXGeneral-Regular-68" d="M 3117 0 
L 1760 0 
L 1760 96 
Q 2042 128 2118 224 
Q 2195 320 2195 653 
L 2195 1920 
Q 2195 2598 1722 2598 
Q 1530 2598 1370 2508 
Q 1210 2419 1005 2195 
L 1005 653 
Q 1005 320 1081 224 
Q 1158 128 1440 96 
L 1440 0 
L 58 0 
L 58 96 
Q 333 134 400 224 
Q 467 314 467 653 
L 467 3667 
Q 467 3872 406 3933 
Q 346 3994 141 3994 
Q 83 3994 64 3987 
L 64 4090 
L 237 4141 
Q 730 4288 973 4371 
L 1005 4352 
L 1005 2406 
Q 1229 2694 1446 2819 
Q 1664 2944 1946 2944 
Q 2733 2944 2733 1926 
L 2733 653 
Q 2733 320 2793 233 
Q 2854 147 3117 96 
L 3117 0 
z
" transform="scale(0.015625)"/>
      </defs>
      <use xlink:href="#STIXGeneral-Regular-46"/>
      <use xlink:href="#STIXGeneral-Regular-65" transform="translate(55.599991 0)"/>
      <use xlink:href="#STIXGeneral-Regular-61" transform="translate(99.999985 0)"/>
      <use xlink:href="#STIXGeneral-Regular-74" transform="translate(144.399979 0)"/>
      <use xlink:href="#STIXGeneral-Regular-75" transform="translate(172.199966 0)"/>
      <use xlink:href="#STIXGeneral-Regular-72" transform="translate(222.199951 0)"/>
      <use xlink:href="#STIXGeneral-Regular-65" transform="translate(255.499939 0)"/>
      <use xlink:href="#STIXGeneral-Regular-20" transform="translate(299.899933 0)"/>
      <use xlink:href="#STIXGeneral-Regular-63" transform="translate(324.899918 0)"/>
      <use xlink:href="#STIXGeneral-Regular-65" transform="translate(369.299911 0)"/>
      <use xlink:href="#STIXGeneral-Regular-69" transform="translate(413.699905 0)"/>
      <use xlink:href="#STIXGeneral-Regular-6c" transform="translate(441.499893 0)"/>
      <use xlink:href="#STIXGeneral-Regular-69" transform="translate(469.299881 0)"/>
      <use xlink:href="#STIXGeneral-Regular-6e" transform="translate(497.099869 0)"/>
      <use xlink:href="#STIXGeneral-Regular-67" transform="translate(547.099854 0)"/>
      <use xlink:href="#STIXGeneral-Regular-20" transform="translate(597.099838 0)"/>
      <use xlink:href="#STIXGeneral-Regular-28" transform="translate(622.099823 0)"/>
      <use xlink:href="#STIXGeneral-Regular-70" transform="translate(655.399811 0)"/>
      <use xlink:href="#STIXGeneral-Regular-65" transform="translate(705.399796 0)"/>
      <use xlink:href="#STIXGeneral-Regular-72" transform="translate(749.799789 0)"/>
      <use xlink:href="#STIXGeneral-Regular-66" transform="translate(783.099777 0)"/>
      <use xlink:href="#STIXGeneral-Regular-65" transform="translate(816.399765 0)"/>
      <use xlink:href="#STIXGeneral-Regular-63" transform="translate(860.799759 0)"/>
      <use xlink:href="#STIXGeneral-Regular-74" transform="translate(905.199753 0)"/>
      <use xlink:href="#STIXGeneral-Regular-20" transform="translate(932.999741 0)"/>
      <use xlink:href="#STIXGeneral-Regular-63" transform="translate(957.999725 0)"/>
      <use xlink:href="#STIXGeneral-Regular-68" transform="translate(1002.399719 0)"/>
      <use xlink:href="#STIXGeneral-Regular-2e" transform="translate(1052.399704 0)"/>
      <use xlink:href="#STIXGeneral-Regular-29" transform="translate(1077.399689 0)"/>
     </g>
    </g>
    <g id="line2d_37">
     <path d="M 193.721 174.311434 
L 198.441 174.311434 
L 203.161 174.311434 
" style="fill: none; stroke-dasharray: 8.32,2.08,1.3,2.08; stroke-dashoffset: 0; stroke: #0072b2; stroke-width: 1.3"/>
    </g>
    <g id="text_21">
     <!-- Fixed $L$ (object-level) -->
     <g transform="translate(207.881 176.376434) scale(0.059 -0.059)">
      <defs>
       <path id="STIXGeneral-Italic-4c" d="M 3578 1152 
L 3206 0 
L -51 0 
L -51 102 
Q 218 128 301 211 
Q 384 294 474 602 
L 1254 3405 
Q 1325 3642 1325 3802 
Q 1325 3942 1225 4000 
Q 1126 4058 832 4077 
L 832 4179 
L 2579 4179 
L 2579 4077 
Q 2285 4058 2147 3955 
Q 2010 3853 1933 3584 
L 1165 838 
Q 1101 595 1101 493 
Q 1101 346 1241 288 
Q 1382 230 1773 230 
Q 2266 230 2480 275 
Q 2694 320 2925 474 
Q 3187 646 3450 1190 
L 3578 1152 
z
" transform="scale(0.015625)"/>
       <path id="STIXGeneral-Regular-62" d="M 979 4358 
L 979 2406 
Q 1082 2650 1315 2797 
Q 1549 2944 1843 2944 
Q 2349 2944 2672 2541 
Q 2995 2138 2995 1536 
Q 2995 832 2566 384 
Q 2138 -64 1498 -64 
Q 1107 -64 774 67 
Q 442 198 442 358 
L 442 3622 
Q 442 3859 384 3926 
Q 326 3994 128 3994 
Q 83 3994 19 3981 
L 19 4090 
L 211 4147 
Q 864 4346 947 4371 
L 979 4358 
z
M 979 2035 
L 979 474 
Q 979 326 1161 233 
Q 1344 141 1600 141 
Q 1978 141 2195 416 
Q 2432 710 2432 1261 
Q 2432 1888 2182 2240 
Q 1971 2541 1613 2541 
Q 1357 2541 1168 2390 
Q 979 2240 979 2035 
z
" transform="scale(0.015625)"/>
       <path id="STIXGeneral-Regular-6a" d="M 1242 4045 
Q 1242 3904 1146 3811 
Q 1050 3718 909 3718 
Q 774 3718 681 3811 
Q 589 3904 589 4045 
Q 589 4179 685 4275 
Q 781 4371 915 4371 
Q 1050 4371 1146 4275 
Q 1242 4179 1242 4045 
z
M 1235 2925 
L 1235 0 
Q 1235 -685 956 -1040 
Q 678 -1395 147 -1395 
Q -115 -1395 -281 -1296 
Q -448 -1197 -448 -1043 
Q -448 -941 -371 -867 
Q -294 -794 -186 -794 
Q -38 -794 122 -998 
Q 269 -1178 390 -1178 
Q 538 -1178 608 -1062 
Q 698 -902 698 -288 
L 698 2138 
Q 698 2522 493 2522 
Q 339 2522 237 2502 
L 205 2496 
L 205 2598 
Q 717 2758 1203 2944 
L 1235 2925 
z
" transform="scale(0.015625)"/>
       <path id="STIXGeneral-Regular-76" d="M 3053 2880 
L 3053 2784 
Q 2906 2771 2835 2688 
Q 2765 2605 2637 2285 
L 1818 230 
Q 1690 -90 1638 -90 
Q 1587 -90 1523 77 
Q 1510 96 1497 141 
Q 1485 186 1472 211 
L 704 2048 
Q 499 2534 403 2652 
Q 307 2771 122 2784 
L 122 2880 
L 1376 2880 
L 1376 2784 
Q 1210 2771 1146 2732 
Q 1082 2694 1082 2611 
Q 1082 2509 1139 2368 
L 1792 730 
L 2426 2387 
Q 2464 2483 2464 2579 
Q 2464 2758 2163 2784 
L 2163 2880 
L 3053 2880 
z
" transform="scale(0.015625)"/>
      </defs>
      <use xlink:href="#STIXGeneral-Regular-46" transform="translate(0 0.703125)"/>
      <use xlink:href="#STIXGeneral-Regular-69" transform="translate(55.599991 0.703125)"/>
      <use xlink:href="#STIXGeneral-Regular-78" transform="translate(83.399979 0.703125)"/>
      <use xlink:href="#STIXGeneral-Regular-65" transform="translate(133.399963 0.703125)"/>
      <use xlink:href="#STIXGeneral-Regular-64" transform="translate(177.799957 0.703125)"/>
      <use xlink:href="#STIXGeneral-Regular-20" transform="translate(227.799942 0.703125)"/>
      <use xlink:href="#STIXGeneral-Italic-4c" transform="translate(252.799927 0.703125)"/>
      <use xlink:href="#STIXGeneral-Regular-20" transform="translate(308.399918 0.703125)"/>
      <use xlink:href="#STIXGeneral-Regular-28" transform="translate(333.399902 0.703125)"/>
      <use xlink:href="#STIXGeneral-Regular-6f" transform="translate(366.69989 0.703125)"/>
      <use xlink:href="#STIXGeneral-Regular-62" transform="translate(416.699875 0.703125)"/>
      <use xlink:href="#STIXGeneral-Regular-6a" transform="translate(466.69986 0.703125)"/>
      <use xlink:href="#STIXGeneral-Regular-65" transform="translate(494.499847 0.703125)"/>
      <use xlink:href="#STIXGeneral-Regular-63" transform="translate(538.899841 0.703125)"/>
      <use xlink:href="#STIXGeneral-Regular-74" transform="translate(583.299835 0.703125)"/>
      <use xlink:href="#STIXGeneral-Regular-2d" transform="translate(611.099823 0.703125)"/>
      <use xlink:href="#STIXGeneral-Regular-6c" transform="translate(644.399811 0.703125)"/>
      <use xlink:href="#STIXGeneral-Regular-65" transform="translate(672.199799 0.703125)"/>
      <use xlink:href="#STIXGeneral-Regular-76" transform="translate(716.599792 0.703125)"/>
      <use xlink:href="#STIXGeneral-Regular-65" transform="translate(766.599777 0.703125)"/>
      <use xlink:href="#STIXGeneral-Regular-6c" transform="translate(810.999771 0.703125)"/>
      <use xlink:href="#STIXGeneral-Regular-29" transform="translate(838.799759 0.703125)"/>
     </g>
    </g>
    <g id="line2d_38">
     <path d="M 193.721 182.689434 
L 198.441 182.689434 
L 203.161 182.689434 
" style="fill: none; stroke: #7b3294; stroke-width: 2; stroke-linecap: square"/>
     <g>
      <use xlink:href="#m96a1924007" x="198.441" y="182.689434" style="fill: #7b3294; stroke: #7b3294; stroke-linejoin: bevel"/>
     </g>
    </g>
    <g id="text_22">
     <!-- CA-TOSG (proposed) -->
     <g transform="translate(207.881 184.754434) scale(0.059 -0.059)">
      <defs>
       <path id="STIXGeneral-Regular-54" d="M 3795 3149 
L 3642 3149 
Q 3539 3674 3353 3821 
Q 3168 3968 2656 3968 
L 2278 3968 
L 2278 710 
Q 2278 346 2387 243 
Q 2496 141 2893 122 
L 2893 0 
L 1024 0 
L 1024 122 
Q 1427 147 1526 256 
Q 1626 365 1626 787 
L 1626 3968 
L 1242 3968 
Q 723 3968 540 3817 
Q 358 3667 262 3149 
L 109 3149 
L 154 4237 
L 3750 4237 
L 3795 3149 
z
" transform="scale(0.015625)"/>
       <path id="STIXGeneral-Regular-4f" d="M 4403 2118 
Q 4403 1133 3820 521 
Q 3238 -90 2310 -90 
Q 1376 -90 797 524 
Q 218 1139 218 2138 
Q 218 3110 797 3718 
Q 1376 4326 2310 4326 
Q 3245 4326 3824 3702 
Q 4403 3078 4403 2118 
z
M 3674 2157 
Q 3674 2701 3520 3133 
Q 3366 3565 3091 3795 
Q 2733 4096 2304 4096 
Q 1760 4096 1389 3667 
Q 1184 3437 1065 3011 
Q 947 2586 947 2125 
Q 947 960 1523 429 
Q 1837 141 2317 141 
Q 2816 141 3142 448 
Q 3674 960 3674 2157 
z
" transform="scale(0.015625)"/>
      </defs>
      <use xlink:href="#STIXGeneral-Regular-43"/>
      <use xlink:href="#STIXGeneral-Regular-41" transform="translate(66.699997 0)"/>
      <use xlink:href="#STIXGeneral-Regular-2d" transform="translate(138.899979 0)"/>
      <use xlink:href="#STIXGeneral-Regular-54" transform="translate(172.199966 0)"/>
      <use xlink:href="#STIXGeneral-Regular-4f" transform="translate(233.299957 0)"/>
      <use xlink:href="#STIXGeneral-Regular-53" transform="translate(305.499939 0)"/>
      <use xlink:href="#STIXGeneral-Regular-47" transform="translate(361.09993 0)"/>
      <use xlink:href="#STIXGeneral-Regular-20" transform="translate(433.299911 0)"/>
      <use xlink:href="#STIXGeneral-Regular-28" transform="translate(458.299896 0)"/>
      <use xlink:href="#STIXGeneral-Regular-70" transform="translate(491.599884 0)"/>
      <use xlink:href="#STIXGeneral-Regular-72" transform="translate(541.599869 0)"/>
      <use xlink:href="#STIXGeneral-Regular-6f" transform="translate(574.899857 0)"/>
      <use xlink:href="#STIXGeneral-Regular-70" transform="translate(624.899841 0)"/>
      <use xlink:href="#STIXGeneral-Regular-6f" transform="translate(674.899826 0)"/>
      <use xlink:href="#STIXGeneral-Regular-73" transform="translate(724.899811 0)"/>
      <use xlink:href="#STIXGeneral-Regular-65" transform="translate(763.799805 0)"/>
      <use xlink:href="#STIXGeneral-Regular-64" transform="translate(808.199799 0)"/>
      <use xlink:href="#STIXGeneral-Regular-29" transform="translate(858.199783 0)"/>
     </g>
    </g>
   </g>
  </g>
 </g>
 <defs>
  <clipPath id="pfd44bacb52">
   <rect x="48.170895" y="13.245234" width="167.93771" height="128.076"/>
  </clipPath>
 </defs>
</svg>
